<?xml version="1.0" standalone="no"?>
<!DOCTYPE svg PUBLIC "-//W3C//DTD SVG 20010904//EN"
 "http://www.w3.org/TR/2001/REC-SVG-20010904/DTD/svg10.dtd">
<svg version="1.0" xmlns="http://www.w3.org/2000/svg"
 width="260.000000pt" height="260.000000pt" viewBox="0 0 260.000000 260.000000"
 preserveAspectRatio="xMidYMid meet">
<metadata>
Created by potrace 1.11, written by Peter Selinger 2001-2013
</metadata>
<g transform="translate(0.000000,260.000000) scale(0.100000,-0.100000)"
fill="#000000" stroke="none">
<path d="M328 2581 c-145 -47 -269 -174 -312 -320 -14 -48 -16 -163 -16 -961
0 -798 2 -913 16 -961 43 -148 168 -274 315 -320 58 -18 106 -19 968 -19 799
0 914 2 962 16 148 43 274 168 320 315 18 58 19 106 19 969 0 863 -1 911 -19
969 -46 147 -172 272 -320 315 -48 14 -162 16 -965 15 -855 0 -915 -1 -968
-18z m472 -376 l0 -35 -105 0 -106 0 3 -72 3 -73 98 -3 97 -3 0 -29 0 -30
-100 0 -100 0 0 -85 0 -85 105 0 105 0 0 -35 0 -35 -140 0 -140 0 0 260 0 260
140 0 140 0 0 -35z m431 -225 l96 -260 -41 0 -41 0 -26 73 -26 72 -103 0 -103
0 -25 -72 -26 -73 -38 0 c-21 0 -38 4 -38 8 0 9 178 491 186 504 3 4 24 8 47
8 l42 0 96 -260z m436 242 c19 -11 20 -15 10 -42 -8 -21 -16 -29 -27 -24 -8 3
-38 11 -66 17 -62 13 -111 -3 -125 -40 -17 -45 8 -74 105 -123 107 -54 131
-82 130 -150 -1 -61 -23 -96 -77 -121 -47 -21 -149 -25 -209 -8 -35 9 -38 13
-38 46 0 32 2 35 23 29 123 -36 190 -31 216 16 28 49 8 77 -94 129 -113 59
-139 91 -133 166 8 93 58 125 183 120 44 -2 90 -9 102 -15z m219 -106 l62
-119 25 44 c14 24 42 79 63 122 l38 77 44 0 43 0 -42 -77 c-23 -43 -62 -113
-86 -157 -43 -78 -43 -79 -43 -182 l0 -104 -40 0 -40 0 0 100 0 101 -64 117
c-35 64 -73 136 -85 160 l-22 43 43 -3 43 -3 61 -119z m230 -529 l24 -28 0
-460 0 -460 -25 -24 -24 -25 -280 0 -280 0 -3 -42 -3 -43 -220 0 -220 0 -3 42
-3 43 -280 0 -280 0 -24 25 -25 24 0 458 c0 496 0 491 54 513 11 5 369 8 794
7 l774 -2 24 -28z m-1548 -1179 c17 -17 15 -67 -3 -75 -14 -5 -14 -8 0 -29 8
-13 11 -24 6 -24 -6 0 -15 9 -21 20 -16 29 -67 28 -73 -2 -2 -13 -5 10 -6 50
l-1 72 43 0 c24 0 48 -5 55 -12z m240 5 c-43 -4 -48 -7 -48 -29 0 -21 4 -24
43 -25 l42 -2 -40 -6 c-34 -5 -40 -10 -43 -33 -3 -25 -1 -27 45 -31 l48 -3
-52 -2 -53 -2 0 70 0 70 53 -2 52 -2 -47 -3z m310 -5 c7 -7 12 -25 12 -40 0
-30 -28 -48 -75 -48 -17 0 -25 -7 -28 -22 -2 -13 -5 10 -6 50 l-1 72 43 0 c24
0 48 -5 55 -12z m264 -53 c17 -37 28 -68 25 -71 -5 -6 -29 31 -33 51 -6 30
-25 65 -33 61 -4 -3 -14 -20 -21 -38 -20 -53 -33 -78 -41 -78 -4 0 6 32 23 70
17 39 35 70 40 70 5 0 23 -29 40 -65z m208 -5 c0 -40 -4 -70 -10 -70 -6 0 -10
30 -10 70 0 40 4 70 10 70 6 0 10 -30 10 -70z m274 54 c20 -20 20 -43 0 -66
-14 -14 -14 -20 -4 -33 7 -9 10 -18 7 -21 -3 -3 -10 4 -17 15 -16 30 -67 29
-73 -1 -2 -13 -5 10 -6 50 l-1 72 39 0 c23 0 46 -7 55 -16z m266 9 c0 -5 -17
-8 -37 -8 -31 0 -38 -4 -38 -19 0 -14 12 -23 43 -34 38 -12 43 -17 40 -41 -3
-24 -7 -26 -50 -29 -27 -2 -48 1 -48 5 0 4 19 8 42 8 32 0 43 4 46 16 2 12 -9
21 -40 31 -32 11 -44 21 -46 38 -2 12 2 27 10 31 16 11 78 12 78 2z"/>
<path d="M1090 2170 c0 -3 -18 -55 -39 -117 -21 -62 -36 -114 -33 -117 5 -6
152 -9 152 -3 0 6 -79 241 -80 237z"/>
<path d="M1555 1427 c-101 -34 -172 -91 -216 -177 -21 -39 -24 -59 -24 -150 0
-98 2 -109 30 -159 37 -68 102 -124 174 -153 44 -17 76 -22 151 -22 114 0 186
24 252 84 l43 40 -69 64 -70 63 -44 -33 c-77 -60 -183 -46 -227 29 -26 43 -25
132 0 176 46 77 150 93 225 32 21 -17 42 -31 47 -31 4 1 37 28 73 60 l64 60
-34 35 c-59 61 -130 88 -240 92 -60 2 -110 -2 -135 -10z"/>
<path d="M650 1106 l0 -326 110 0 110 0 0 75 0 75 48 0 c72 0 170 19 211 40
53 26 108 91 122 142 26 96 -13 210 -88 260 -71 46 -98 51 -310 56 l-203 4 0
-326z m358 128 c29 -20 30 -76 2 -104 -16 -16 -33 -20 -80 -20 l-60 0 0 70 0
70 58 0 c36 0 66 -6 80 -16z"/>
<path d="M480 376 c0 -41 10 -50 50 -41 59 13 46 75 -16 75 -32 0 -34 -2 -34
-34z"/>
<path d="M1030 375 c0 -41 16 -51 57 -38 54 18 37 73 -23 73 -32 0 -34 -2 -34
-35z"/>
<path d="M1780 370 c0 -36 3 -40 24 -40 13 0 34 8 46 18 19 16 21 22 11 40 -9
16 -21 22 -46 22 -34 0 -35 -1 -35 -40z"/>
</g>
</svg>
